<svg xmlns="http://www.w3.org/2000/svg" width="1600" height="900" viewBox="0 0 1600 900">
<defs>
  <marker id="arrow" markerWidth="10" markerHeight="10" refX="9" refY="5" orient="auto" markerUnits="strokeWidth">
    <path d="M1,1 L9,5 L1,9 Z" fill="#334155"/>
  </marker>
  <filter id="shadow" x="-20%" y="-20%" width="140%" height="140%">
    <feDropShadow dx="0" dy="10" stdDeviation="10" flood-color="#0f172a" flood-opacity="0.10"/>
  </filter>
  <linearGradient id="bar" x1="0" y1="0" x2="1" y2="0">
    <stop offset="0%" stop-color="#2563eb"/>
    <stop offset="35%" stop-color="#059669"/>
    <stop offset="70%" stop-color="#7c3aed"/>
    <stop offset="100%" stop-color="#ea580c"/>
  </linearGradient>
</defs>
<rect width="1600" height="900" fill="#f8fafc"/>

<text x="80" y="70" font-family="Arial, Helvetica, sans-serif" font-size="42" font-weight="850" fill="#0f172a" text-anchor="start">
<tspan x="80" dy="0">Quy trình thí nghiệm ASR tiếng Việt</tspan>
</text>
<text x="82" y="108" font-family="Arial, Helvetica, sans-serif" font-size="20" font-weight="400" fill="#475569" text-anchor="start">
<tspan x="82" dy="0">Bản trực quan ít rối: chỉ giữ 5 khối chính và 4 mũi tên luồng chính.</tspan>
</text>
<rect x="80" y="132" width="1440" height="5" rx="2.5" fill="url(#bar)" opacity="0.8"/>
<rect x="70" y="190" width="250" height="560" rx="28" ry="28" fill="#eff6ff" stroke="#2563eb" stroke-width="2.2" filter="url(#shadow)"/>
<circle cx="106" cy="229" r="22" fill="#2563eb"/>
<text x="106" y="237" font-family="Arial, Helvetica, sans-serif" font-size="22" font-weight="800" fill="#fff" text-anchor="middle">
<tspan x="106" dy="0">1</tspan>
</text>
<text x="140" y="225" font-family="Arial, Helvetica, sans-serif" font-size="23" font-weight="800" fill="#0f172a" text-anchor="start">
<tspan x="140" dy="0">Dữ liệu</tspan>
</text>
<text x="140" y="251" font-family="Arial, Helvetica, sans-serif" font-size="14" font-weight="500" fill="#64748b" text-anchor="start">
<tspan x="140" dy="0">Nguồn dữ liệu gốc</tspan>
</text>
<line x1="94" y1="276" x2="296" y2="276" stroke="#2563eb" stroke-width="2" opacity="0.22"/>
<rect x="380" y="190" width="250" height="560" rx="28" ry="28" fill="#ecfdf5" stroke="#059669" stroke-width="2.2" filter="url(#shadow)"/>
<circle cx="416" cy="229" r="22" fill="#059669"/>
<text x="416" y="237" font-family="Arial, Helvetica, sans-serif" font-size="22" font-weight="800" fill="#fff" text-anchor="middle">
<tspan x="416" dy="0">2</tspan>
</text>
<text x="450" y="225" font-family="Arial, Helvetica, sans-serif" font-size="23" font-weight="800" fill="#0f172a" text-anchor="start">
<tspan x="450" dy="0">Chuẩn bị</tspan>
</text>
<text x="450" y="251" font-family="Arial, Helvetica, sans-serif" font-size="14" font-weight="500" fill="#64748b" text-anchor="start">
<tspan x="450" dy="0">Tạo train/test rõ ràng</tspan>
</text>
<line x1="404" y1="276" x2="606" y2="276" stroke="#059669" stroke-width="2" opacity="0.22"/>
<rect x="690" y="190" width="250" height="560" rx="28" ry="28" fill="#faf5ff" stroke="#7c3aed" stroke-width="2.2" filter="url(#shadow)"/>
<circle cx="726" cy="229" r="22" fill="#7c3aed"/>
<text x="726" y="237" font-family="Arial, Helvetica, sans-serif" font-size="22" font-weight="800" fill="#fff" text-anchor="middle">
<tspan x="726" dy="0">3</tspan>
</text>
<text x="760" y="225" font-family="Arial, Helvetica, sans-serif" font-size="23" font-weight="800" fill="#0f172a" text-anchor="start">
<tspan x="760" dy="0">Mô hình</tspan>
</text>
<text x="760" y="251" font-family="Arial, Helvetica, sans-serif" font-size="14" font-weight="500" fill="#64748b" text-anchor="start">
<tspan x="760" dy="0">Gom 3 model vào 1 nhóm</tspan>
</text>
<line x1="714" y1="276" x2="916" y2="276" stroke="#7c3aed" stroke-width="2" opacity="0.22"/>
<rect x="1000" y="190" width="250" height="560" rx="28" ry="28" fill="#fff7ed" stroke="#ea580c" stroke-width="2.2" filter="url(#shadow)"/>
<circle cx="1036" cy="229" r="22" fill="#ea580c"/>
<text x="1036" y="237" font-family="Arial, Helvetica, sans-serif" font-size="22" font-weight="800" fill="#fff" text-anchor="middle">
<tspan x="1036" dy="0">4</tspan>
</text>
<text x="1070" y="225" font-family="Arial, Helvetica, sans-serif" font-size="23" font-weight="800" fill="#0f172a" text-anchor="start">
<tspan x="1070" dy="0">Đánh giá</tspan>
</text>
<text x="1070" y="251" font-family="Arial, Helvetica, sans-serif" font-size="14" font-weight="500" fill="#64748b" text-anchor="start">
<tspan x="1070" dy="0">Chạy ASR rồi chấm điểm</tspan>
</text>
<line x1="1024" y1="276" x2="1226" y2="276" stroke="#ea580c" stroke-width="2" opacity="0.22"/>
<rect x="1310" y="190" width="250" height="560" rx="28" ry="28" fill="#f0fdfa" stroke="#0f766e" stroke-width="2.2" filter="url(#shadow)"/>
<circle cx="1346" cy="229" r="22" fill="#0f766e"/>
<text x="1346" y="237" font-family="Arial, Helvetica, sans-serif" font-size="22" font-weight="800" fill="#fff" text-anchor="middle">
<tspan x="1346" dy="0">5</tspan>
</text>
<text x="1380" y="225" font-family="Arial, Helvetica, sans-serif" font-size="23" font-weight="800" fill="#0f172a" text-anchor="start">
<tspan x="1380" dy="0">Kết quả</tspan>
</text>
<text x="1380" y="251" font-family="Arial, Helvetica, sans-serif" font-size="14" font-weight="500" fill="#64748b" text-anchor="start">
<tspan x="1380" dy="0">Xuất bảng so sánh</tspan>
</text>
<line x1="1334" y1="276" x2="1536" y2="276" stroke="#0f766e" stroke-width="2" opacity="0.22"/>
<rect x="95" y="310" width="205" height="70" rx="16" ry="16" fill="#fff" stroke="#93c5fd" stroke-width="1.5"/>
<circle cx="117" cy="345.0" r="7" fill="#2563eb"/>
<text x="133" y="336" font-family="Arial, Helvetica, sans-serif" font-size="15.5" font-weight="700" fill="#1e3a8a" text-anchor="start">
<tspan x="133" dy="0">VIVOS train</tspan>
</text>
<text x="133" y="358.5" font-family="Arial, Helvetica, sans-serif" font-size="14" font-weight="400" fill="#64748b" text-anchor="start">
<tspan x="133" dy="0">dùng cho LoRA</tspan>
</text>
<rect x="95" y="410" width="205" height="70" rx="16" ry="16" fill="#fff" stroke="#86efac" stroke-width="1.5"/>
<circle cx="117" cy="445.0" r="7" fill="#059669"/>
<text x="133" y="436" font-family="Arial, Helvetica, sans-serif" font-size="15.5" font-weight="700" fill="#14532d" text-anchor="start">
<tspan x="133" dy="0">VIVOS test</tspan>
</text>
<text x="133" y="458.5" font-family="Arial, Helvetica, sans-serif" font-size="14" font-weight="400" fill="#64748b" text-anchor="start">
<tspan x="133" dy="0">test sạch gốc</tspan>
</text>
<rect x="95" y="510" width="205" height="70" rx="16" ry="16" fill="#fff" stroke="#fdba74" stroke-width="1.5"/>
<circle cx="117" cy="545.0" r="7" fill="#ea580c"/>
<text x="133" y="536" font-family="Arial, Helvetica, sans-serif" font-size="15.5" font-weight="700" fill="#7c2d12" text-anchor="start">
<tspan x="133" dy="0">MUSAN noise</tspan>
</text>
<text x="133" y="558.5" font-family="Arial, Helvetica, sans-serif" font-size="14" font-weight="400" fill="#64748b" text-anchor="start">
<tspan x="133" dy="0">tạo dữ liệu nhiễu</tspan>
</text>
<rect x="405" y="300" width="205" height="92" rx="16" ry="16" fill="#fff" stroke="#c084fc" stroke-width="1.5"/>
<circle cx="427" cy="346.0" r="7" fill="#7c3aed"/>
<text x="443" y="326" font-family="Arial, Helvetica, sans-serif" font-size="15.5" font-weight="700" fill="#581c87" text-anchor="start">
<tspan x="443" dy="0">Train LoRA</tspan>
</text>
<text x="443" y="348.5" font-family="Arial, Helvetica, sans-serif" font-size="14" font-weight="400" fill="#64748b" text-anchor="start">
<tspan x="443" dy="0">VIVOS train + noise</tspan>
<tspan x="443" dy="16.24">augmentation</tspan>
</text>
<rect x="405" y="425" width="205" height="75" rx="16" ry="16" fill="#fff" stroke="#86efac" stroke-width="1.5"/>
<circle cx="427" cy="462.5" r="7" fill="#059669"/>
<text x="443" y="451" font-family="Arial, Helvetica, sans-serif" font-size="15.5" font-weight="700" fill="#14532d" text-anchor="start">
<tspan x="443" dy="0">Clean test</tspan>
</text>
<text x="443" y="473.5" font-family="Arial, Helvetica, sans-serif" font-size="14" font-weight="400" fill="#64748b" text-anchor="start">
<tspan x="443" dy="0">VIVOS test</tspan>
</text>
<rect x="405" y="525" width="205" height="95" rx="16" ry="16" fill="#fff" stroke="#fdba74" stroke-width="1.5"/>
<circle cx="427" cy="572.5" r="7" fill="#ea580c"/>
<text x="443" y="551" font-family="Arial, Helvetica, sans-serif" font-size="15.5" font-weight="700" fill="#7c2d12" text-anchor="start">
<tspan x="443" dy="0">Noisy test</tspan>
</text>
<text x="443" y="573.5" font-family="Arial, Helvetica, sans-serif" font-size="14" font-weight="400" fill="#64748b" text-anchor="start">
<tspan x="443" dy="0">VIVOS test +</tspan>
<tspan x="443" dy="16.24">MUSAN noise</tspan>
</text>
<rect x="715" y="295" width="205" height="98" rx="16" ry="16" fill="#fff" stroke="#c084fc" stroke-width="1.5"/>
<circle cx="737" cy="344.0" r="7" fill="#7c3aed"/>
<text x="753" y="321" font-family="Arial, Helvetica, sans-serif" font-size="15.5" font-weight="700" fill="#581c87" text-anchor="start">
<tspan x="753" dy="0">PhoWhisper</tspan>
<tspan x="753" dy="17.360000000000003">tone-aware LoRA</tspan>
</text>
<text x="753" y="362.0" font-family="Arial, Helvetica, sans-serif" font-size="14" font-weight="400" fill="#64748b" text-anchor="start">
<tspan x="753" dy="0">model đã fine-tune</tspan>
</text>
<rect x="715" y="425" width="205" height="80" rx="16" ry="16" fill="#fff" stroke="#cbd5e1" stroke-width="1.5"/>
<circle cx="737" cy="465.0" r="7" fill="#64748b"/>
<text x="753" y="451" font-family="Arial, Helvetica, sans-serif" font-size="15.5" font-weight="700" fill="#0f172a" text-anchor="start">
<tspan x="753" dy="0">PhoWhisper-base</tspan>
</text>
<text x="753" y="473.5" font-family="Arial, Helvetica, sans-serif" font-size="14" font-weight="400" fill="#64748b" text-anchor="start">
<tspan x="753" dy="0">zero-shot</tspan>
</text>
<rect x="715" y="530" width="205" height="80" rx="16" ry="16" fill="#fff" stroke="#cbd5e1" stroke-width="1.5"/>
<circle cx="737" cy="570.0" r="7" fill="#64748b"/>
<text x="753" y="556" font-family="Arial, Helvetica, sans-serif" font-size="15.5" font-weight="700" fill="#0f172a" text-anchor="start">
<tspan x="753" dy="0">Whisper-base</tspan>
</text>
<text x="753" y="578.5" font-family="Arial, Helvetica, sans-serif" font-size="14" font-weight="400" fill="#64748b" text-anchor="start">
<tspan x="753" dy="0">zero-shot</tspan>
</text>
<rect x="1025" y="315" width="205" height="90" rx="16" ry="16" fill="#fff" stroke="#fdba74" stroke-width="1.5"/>
<circle cx="1047" cy="360.0" r="7" fill="#ea580c"/>
<text x="1063" y="341" font-family="Arial, Helvetica, sans-serif" font-size="15.5" font-weight="700" fill="#7c2d12" text-anchor="start">
<tspan x="1063" dy="0">Run ASR</tspan>
</text>
<text x="1063" y="363.5" font-family="Arial, Helvetica, sans-serif" font-size="14" font-weight="400" fill="#64748b" text-anchor="start">
<tspan x="1063" dy="0">3 models ×</tspan>
<tspan x="1063" dy="16.24">2 test sets</tspan>
</text>
<rect x="1025" y="455" width="205" height="125" rx="16" ry="16" fill="#fff" stroke="#94a3b8" stroke-width="1.5"/>
<circle cx="1047" cy="517.5" r="7" fill="#334155"/>
<text x="1063" y="481" font-family="Arial, Helvetica, sans-serif" font-size="15.5" font-weight="700" fill="#0f172a" text-anchor="start">
<tspan x="1063" dy="0">6 metrics</tspan>
</text>
<text x="1063" y="503.5" font-family="Arial, Helvetica, sans-serif" font-size="14" font-weight="400" fill="#64748b" text-anchor="start">
<tspan x="1063" dy="0">WER / CER / TER /</tspan>
<tspan x="1063" dy="16.24">DER / FCER / SWDR</tspan>
</text>
<rect x="1335" y="330" width="205" height="112" rx="16" ry="16" fill="#fff" stroke="#5eead4" stroke-width="1.5"/>
<circle cx="1357" cy="386.0" r="7" fill="#0f766e"/>
<text x="1373" y="356" font-family="Arial, Helvetica, sans-serif" font-size="15.5" font-weight="700" fill="#134e4a" text-anchor="start">
<tspan x="1373" dy="0">Final comparison</tspan>
</text>
<text x="1373" y="378.5" font-family="Arial, Helvetica, sans-serif" font-size="14" font-weight="400" fill="#64748b" text-anchor="start">
<tspan x="1373" dy="0">model_comparison_</tspan>
<tspan x="1373" dy="16.24">6metrics.csv</tspan>
</text>
<rect x="1335" y="490" width="205" height="85" rx="16" ry="16" fill="#ffffff" stroke="#cbd5e1" stroke-width="1.3" stroke-dasharray="6 5"/>
<text x="1354" y="523" font-family="Arial, Helvetica, sans-serif" font-size="15" font-weight="600" fill="#475569" text-anchor="start">
<tspan x="1354" dy="0">Bảng này dùng để</tspan>
<tspan x="1354" dy="18.75">so sánh model cuối cùng</tspan>
</text>
<line x1="337" y1="470" x2="363" y2="470" stroke="#334155" stroke-width="3" marker-end="url(#arrow)" opacity="0.85"/>
<line x1="647" y1="470" x2="673" y2="470" stroke="#334155" stroke-width="3" marker-end="url(#arrow)" opacity="0.85"/>
<line x1="957" y1="470" x2="983" y2="470" stroke="#334155" stroke-width="3" marker-end="url(#arrow)" opacity="0.85"/>
<line x1="1267" y1="470" x2="1293" y2="470" stroke="#334155" stroke-width="3" marker-end="url(#arrow)" opacity="0.85"/>
<rect x="80" y="795" width="1440" height="58" rx="20" ry="20" fill="#ffffff" stroke="#e2e8f0" stroke-width="1.2"/>
<text x="105" y="830" font-family="Arial, Helvetica, sans-serif" font-size="19" font-weight="650" fill="#334155" text-anchor="start">
<tspan x="105" dy="0">Cách đọc nhanh: nguồn dữ liệu → chuẩn bị train/test → gom 3 mô hình → đánh giá bằng 6 metric → xuất CSV.</tspan>
</text>
</svg>